<?xml version="1.0" encoding="UTF-8" standalone="no"?>
<!-- Created with Inkscape (http://www.inkscape.org/) -->

<svg
   xmlns:dc="http://purl.org/dc/elements/1.1/"
   xmlns:cc="http://creativecommons.org/ns#"
   xmlns:rdf="http://www.w3.org/1999/02/22-rdf-syntax-ns#"
   xmlns:svg="http://www.w3.org/2000/svg"
   xmlns="http://www.w3.org/2000/svg"
   xmlns:sodipodi="http://sodipodi.sourceforge.net/DTD/sodipodi-0.dtd"
   xmlns:inkscape="http://www.inkscape.org/namespaces/inkscape"
   width="200"
   height="234.99995"
   id="svg4303"
   version="1.1"
   inkscape:version="0.48.3.1 r9886"
   sodipodi:docname="ramda.svg">
  <defs
     id="defs4305" />
  <sodipodi:namedview
     id="base"
     pagecolor="#ffffff"
     bordercolor="#666666"
     borderopacity="1.0"
     inkscape:pageopacity="0.0"
     inkscape:pageshadow="2"
     inkscape:zoom="0.35"
     inkscape:cx="535.87599"
     inkscape:cy="891.30604"
     inkscape:document-units="px"
     inkscape:current-layer="layer1"
     showgrid="false"
     fit-margin-top="0"
     fit-margin-left="0"
     fit-margin-right="0"
     fit-margin-bottom="0"
     inkscape:window-width="1920"
     inkscape:window-height="1024"
     inkscape:window-x="-4"
     inkscape:window-y="31"
     inkscape:window-maximized="1" />
  <metadata
     id="metadata4308">
    <rdf:RDF>
      <cc:Work
         rdf:about="">
        <dc:format>image/svg+xml</dc:format>
        <dc:type
           rdf:resource="http://purl.org/dc/dcmitype/StillImage" />
        <dc:title></dc:title>
      </cc:Work>
    </rdf:RDF>
  </metadata>
  <g
     inkscape:label="Layer 1"
     inkscape:groupmode="layer"
     id="layer1"
     transform="translate(160.876,-1188.6683)">
    <path
       style="fill:#000000"
       d="m 9.6909708,1423.5848 c -2.6065294,-0.3904 -4.6566276,-1.354 -5.9565262,-2.8 -1.2877419,-1.4325 -2.6845367,-4.3345 -7.8783372,-16.3681 -5.2511321,-12.1664 -29.8592864,-68.4639 -35.4796674,-81.1689 -5.806106,-13.1248 -10.027981,-22.7173 -11.883626,-27.0008 -3.216244,-7.4241 -4.35159,-8.066 -7.058847,-3.9904 -0.598679,0.9013 -3.30746,5.9517 -6.019512,11.2232 -2.712053,5.2714 -8.435144,16.3685 -12.71798,24.6602 -4.282837,8.2915 -10.66333,20.6466 -14.178871,27.4556 -3.515543,6.8089 -8.415804,16.2886 -10.889464,21.066 -2.47367,4.7772 -8.26827,16.1888 -12.87691,25.3589 -4.60863,9.1703 -8.56145,16.9428 -8.78403,17.2722 -1.31026,1.9394 -2.96084,2.9119 -5.59227,3.2949 -2.3973,0.3489 -20.14728,-0.039 -21.68281,-0.4735 -1.26649,-0.3587 -2.36906,-1.1774 -2.87759,-2.1367 -0.46178,-0.8712 -0.35863,-3.4395 0.19213,-4.7837 0.36735,-0.8965 1.44645,-2.9754 11.55401,-22.2585 2.87827,-5.491 6.8314,-13.0838 8.78474,-16.8727 1.95334,-3.7888 7.5494,-14.5265 12.43568,-23.8614 4.88628,-9.3349 10.47228,-20.0726 12.41333,-23.8615 5.87002,-11.4582 11.152697,-21.6874 17.220875,-33.3461 7.832044,-15.0476 13.302712,-26.0642 13.453496,-27.092 0.105537,-0.7194 0.05165,-0.9053 -0.390889,-1.3479 -0.682103,-0.6822 -1.20577,-0.6567 -4.014715,0.1949 -5.660215,1.7161 -9.006993,2.1895 -14.365,2.0316 -5.027247,-0.148 -8.726457,-0.6071 -12.465827,-1.5467 -5.06495,-1.2728 -7.19391,-2.6453 -7.52461,-4.8508 -0.28667,-1.9119 0.70766,-3.596 3.1082,-5.2642 1.69248,-1.1762 8.0161,-4.2366 11.51916,-5.5749 5.985724,-2.2867 12.183959,-3.5949 22.061319,-4.656 3.965633,-0.4261 4.64294,-0.677 5.243448,-1.9427 0.499974,-1.0537 0.308905,-1.7722 -1.373102,-5.1633 -0.81741,-1.6479 -1.642994,-3.5798 -1.83463,-4.293 -0.308402,-1.1478 -0.47726,-4.114 -0.48524,-8.5237 l -0.0012,-0.6375 -1.811456,0.937 -1.811459,0.9371 -2.331283,-0.01 c -2.10047,-0.01 -2.517182,-0.071 -4.208878,-0.6554 -1.032675,-0.3566 -2.694763,-1.0634 -3.693529,-1.5707 -1.573146,-0.7991 -2.102015,-1.2162 -3.95565,-3.1198 l -2.139713,-2.1973 -2.185377,0.9331 c -4.1159,1.7575 -9.15917,1.8127 -12.97075,0.1421 -2.38499,-1.0454 -2.11478,-1.1183 -4.60639,1.2421 -2.72039,2.5771 -4.39404,3.5163 -7.74058,4.344 -1.26173,0.3122 -2.51801,0.7142 -2.79174,0.8937 -0.58757,0.3849 -0.92237,1.1226 -1.35356,2.9822 -0.84195,3.6309 -3.31056,6.3157 -6.87439,7.4766 -0.70123,0.2284 -1.39751,0.5169 -1.54729,0.6413 -0.3752,0.3114 -0.33898,1.0469 0.12671,2.5733 0.54422,1.7838 0.68793,3.9383 0.41289,6.19 -0.4189,3.4294 -0.78236,4.744 -1.92506,6.9626 -0.59565,1.1565 -1.08301,2.2931 -1.08301,2.5258 0,0.2327 0.35989,1.001 0.79977,1.7073 1.54736,2.4845 2.23168,4.0555 3.10626,7.131 0.48563,1.7077 1.00597,3.2922 1.15631,3.5211 0.15033,0.2289 0.92657,1.1351 1.72496,2.0136 0.7984,0.8786 2.11652,2.4649 2.92917,3.5253 1.70203,2.2207 2.95872,3.2663 5.09688,4.2409 0.83524,0.3806 2.22017,1.118 3.07762,1.6386 2.60711,1.5828 3.68382,1.868 7.06531,1.8717 6.07761,0.01 9.6216,-0.9645 15.01751,-4.1136 2.750733,-1.6054 4.790106,-2.459 5.891804,-2.4662 0.963592,-0.01 2.163599,0.5456 2.422643,1.1142 0.979528,2.1501 -1.850312,6.5914 -5.954603,9.3455 -3.546344,2.3797 -10.222894,4.7633 -16.255524,5.8036 -2.31129,0.3985 -7.75257,0.4013 -10.40557,0.01 -3.46405,-0.5171 -8.1961,-2.0424 -11.54178,-3.7204 -2.21718,-1.112 -9.03083,-6.0823 -11.2916,-8.2368 -4.37049,-4.1649 -8.98654,-11.5663 -10.5274,-16.8797 -1.38708,-4.7831 -2.44025,-17.5914 -1.89765,-23.0785 1.10551,-11.1796 4.56574,-19.118 13.50002,-30.9715 5.41722,-7.1873 8.29548,-9.9823 13.2106,-12.8283 5.15124,-2.9828 13.68719,-5.8758 21.22564,-7.1939 5.83353,-1.0199 9.09373,-1.3215 14.274993,-1.3206 5.41213,10e-4 5.80939,0.048 11.920587,1.4083 9.133448,2.0329 17.242871,5.7284 24.17013,11.0144 2.768609,2.1126 6.678449,6.0632 8.750729,8.8418 5.787019,7.7596 9.658989,14.2545 13.858488,23.2463 2.728805,5.8428 3.667437,7.3887 5.190806,8.5493 1.504558,1.1462 2.98704,1.5199 6.95958,1.7547 6.177344,0.3651 8.826656,0.8811 13.501895,2.6298 5.497844,2.0564 8.9408479,3.7829 13.34730581,6.6931 4.95948699,3.2754 10.26537109,8.1369 12.95584319,11.871 2.320854,3.2211 4.758076,8.1221 6.620096,13.3124 1.032665,2.8785 2.120219,7.4436 4.216347,17.6982 0.672701,3.2909 1.260332,6.0438 1.305812,6.1175 0.0455,0.074 1.023447,6.6809 2.173213,14.6829 1.149765,8.0021 2.900598,19.3114 3.890723,25.1321 0.990145,5.8206 2.565965,15.3901 3.501845,21.2656 0.93588,5.8755 2.056437,12.7495 2.490137,15.2754 0.976549,5.6876 1.640746,11.442 2.298174,19.9108 0.786142,10.1269 0.637144,15.9656 -0.500803,19.6253 -1.359478,4.3721 -3.178132,5.5583 -8.874771,5.7886 -4.428881,0.1789 -18.557571,0.2518 -19.5657212,0.1009 z m 16.5315172,-19.682 c 0.180603,-0.8234 0.1139,-2.3306 -0.264497,-5.9756 -0.501761,-4.8333 -1.177617,-6.8581 -2.793685,-8.3701 -1.581949,-1.4799 -3.372352,-1.4527 -4.57772,0.069 -2.145851,2.7097 -1.384906,6.3691 2.271879,10.9255 1.924149,2.3976 4.300007,4.3892 4.998283,4.1901 0.106574,-0.03 0.271145,-0.408 0.36574,-0.8393 z m -28.8100054,-83.7055 c 0,-0.2307 -0.5482474,-0.9787 -1.8619918,-2.5405 -1.3356,-1.5876 -3.614709,-6.0312 -4.3418131,-8.4652 -0.3740008,-1.252 -0.4217631,-1.753 -0.3140558,-3.2947 0.069866,-0.9999 0.3056285,-2.492 0.5239201,-3.3157 0.7009579,-2.6449 0.4696751,-4.1972 -0.7823374,-5.2508 -1.0383126,-0.8738 -2.3940276,-0.6418 -3.8813316,0.6643 -1.849203,1.6238 -2.588381,3.5514 -2.562808,6.6832 0.03839,4.7013 2.354766,9.2052 6.2010435,12.057 2.6873458,1.9925 7.0193741,4.1293 7.0193741,3.4624 z"
       id="path4271"
       inkscape:connector-curvature="0" />
  </g>
</svg>
