<?xml version="1.0" encoding="UTF-8" standalone="no"?>
<!-- Created with Inkscape (http://www.inkscape.org/) -->

<svg
   xmlns:dc="http://purl.org/dc/elements/1.1/"
   xmlns:cc="http://creativecommons.org/ns#"
   xmlns:rdf="http://www.w3.org/1999/02/22-rdf-syntax-ns#"
   xmlns:svg="http://www.w3.org/2000/svg"
   xmlns="http://www.w3.org/2000/svg"
   xmlns:sodipodi="http://sodipodi.sourceforge.net/DTD/sodipodi-0.dtd"
   xmlns:inkscape="http://www.inkscape.org/namespaces/inkscape"
   width="1003.6062"
   height="1168.069"
   id="svg3172"
   version="1.1"
   inkscape:version="0.48.4 r9939"
   sodipodi:docname="New document 14">
  <defs
     id="defs3174" />
  <sodipodi:namedview
     id="base"
     pagecolor="#ffffff"
     bordercolor="#666666"
     borderopacity="1.0"
     inkscape:pageopacity="0.0"
     inkscape:pageshadow="2"
     inkscape:zoom="0.35"
     inkscape:cx="516.80309"
     inkscape:cy="761.17733"
     inkscape:document-units="px"
     inkscape:current-layer="layer1"
     showgrid="false"
     fit-margin-top="0"
     fit-margin-left="0"
     fit-margin-right="0"
     fit-margin-bottom="0"
     inkscape:window-width="1075"
     inkscape:window-height="872"
     inkscape:window-x="330"
     inkscape:window-y="106"
     inkscape:window-maximized="0" />
  <metadata
     id="metadata3177">
    <rdf:RDF>
      <cc:Work
         rdf:about="">
        <dc:format>image/svg+xml</dc:format>
        <dc:type
           rdf:resource="http://purl.org/dc/dcmitype/StillImage" />
        <dc:title></dc:title>
      </cc:Work>
    </rdf:RDF>
  </metadata>
  <g
     inkscape:label="Layer 1"
     inkscape:groupmode="layer"
     id="layer1"
     transform="translate(141.80309,-125.47053)">
    <path
       style="fill:#000000"
       d="m 706.07926,1293.0638 c -7.75954,-1.2171 -21.90296,-10.9008 -21.90296,-14.9965 0,-0.9264 -1.61546,-5.2281 -3.58991,-9.5593 -1.97446,-4.3311 -4.17377,-9.4498 -4.88737,-11.3748 -2.33522,-6.2995 -9.76358,-22.4657 -11.02801,-24 -0.67987,-0.825 -2.24562,-4.65 -3.47945,-8.5 -1.23383,-3.85 -2.80364,-7.9 -3.48847,-9 -0.68483,-1.1 -3.14877,-6.725 -5.47542,-12.5 -2.32665,-5.775 -4.63399,-10.9889 -5.12743,-11.5863 -0.49344,-0.5975 -1.52479,-2.8475 -2.29188,-5 -0.76709,-2.1526 -3.63983,-8.6387 -6.38387,-14.4137 -2.74404,-5.775 -6.7085,-14.55 -8.80991,-19.5 -2.10141,-4.95 -5.08469,-11.4082 -6.62951,-14.3515 -1.54482,-2.9434 -2.80877,-5.9921 -2.80877,-6.775 0,-0.7829 -1.57305,-4.5471 -3.49567,-8.3648 -1.92262,-3.8178 -6.46301,-13.5941 -10.08976,-21.725 -3.62675,-8.131 -7.86563,-17.4836 -9.41974,-20.7836 -5.48388,-11.6445 -12.01533,-26.4798 -14.03676,-31.8825 -1.12508,-3.0071 -3.09581,-7.015 -4.3794,-8.9065 -1.28358,-1.8914 -2.90449,-5.1877 -3.60203,-7.325 -0.69753,-2.1373 -4.57763,-11.1411 -8.62244,-20.0083 -4.04481,-8.8673 -7.3542,-16.40992 -7.3542,-16.76137 0,-0.35146 -2.28536,-5.47142 -5.07858,-11.37768 -8.12511,-17.18057 -11.62409,-25.00687 -31.60819,-70.69928 -4.07985,-9.32833 -7.79902,-17.42833 -8.26482,-18 -0.46579,-0.57166 -2.72918,-5.31439 -5.02976,-10.53939 -2.30057,-5.225 -6.56743,-14.9 -9.4819,-21.5 -2.91447,-6.6 -7.19713,-16.5 -9.51702,-22 -5.18027,-12.28143 -16.55598,-37.75826 -24.43381,-54.72155 -1.97225,-4.24685 -3.58592,-7.93725 -3.58592,-8.20089 0,-0.43867 -4.81291,-10.90614 -11.99037,-26.07756 -1.5612,-3.3 -3.94113,-8.475 -5.28874,-11.5 -1.3476,-3.025 -5.0553,-11.35 -8.23933,-18.5 -3.18402,-7.15 -11.56993,-25.64377 -18.63535,-41.09727 -7.06541,-15.4535 -12.84621,-28.42807 -12.84621,-28.83239 0,-0.76574 -4.60605,-11.78912 -8.17734,-19.57034 -9.80393,-21.36104 -13.88776,-29.5 -14.80203,-29.5 -1.23085,0 -344.595249,673.65182 -347.313559,681.39972 -2.7496,7.8371 -3.27805,7.99 -24.20707,7.0038 -9.89999999,-0.4666 -42.48055,-1.0573 -72.401232,-1.3129 -60.947139,-0.5205 -58.402459,-0.1927 -55.526339,-7.1536 0.89471,-2.1654 2.2037,-4.6121 2.90888,-5.4371 0.70517,-0.825 1.61118,-2.625 2.01335,-4 0.40216,-1.375 2.19785,-4.75 3.99042,-7.5 4.57621,-7.0204 395.51492,-771.00542 395.51492,-772.92795 0,-2.9083 -4.96775,-1.34632 -23.5,7.38896 -13.67833,6.44736 -30.76654,12.80173 -36.20496,13.46306 -2.86273,0.34812 -6.91273,1.23409 -9,1.96883 -10.04967,3.53756 -63.17694,4.561 -77.29504,1.489 -2.475,-0.53854 -8.17543,-1.33122 -12.66762,-1.7615 -4.73057,-0.45313 -9.23951,-1.48468 -10.71482,-2.45133 -1.40095,-0.91795 -3.90392,-1.66899 -5.56214,-1.66899 -1.65822,0 -4.71155,-0.67777 -6.78518,-1.50616 -2.07363,-0.82839 -8.045239,-2.59388 -13.270239,-3.92333 -20.04777,-5.10092 -29.69273,-9.80999 -28.4062,-13.86909 1.15059,-3.63017 10.52477,-11.8197 20.83433,-18.20142 5.33109,-3.3 11.80317,-7.36788 14.38239,-9.03973 6.832079,-4.42856 35.094329,-17.46027 37.866619,-17.46027 0.47222,0 2.42555,-1.06224 4.34073,-2.36054 1.91517,-1.2983 6.18213,-3.13352 9.48213,-4.07826 3.3,-0.94474 6.90711,-2.29882 8.0158,-3.00906 2.18782,-1.40154 17.69263,-5.55214 20.74033,-5.55214 1.03144,0 2.85827,-0.55614 4.05961,-1.23587 1.20134,-0.67973 4.65926,-1.76667 7.68426,-2.41543 3.025,-0.64875 7.3,-1.69257 9.5,-2.31959 2.2,-0.62702 8.275,-1.76374 13.5,-2.52605 5.225,-0.7623 11.525,-1.90311 14,-2.53511 11.02073,-2.81421 33.42923,-3.91551 59.5,-2.92422 13.71706,0.52156 12.82394,1.44548 9.50589,-9.83374 -4.777,-16.23871 -14.59113,-34.21697 -24.35356,-44.61271 l -3.84768,-4.09728 0.58989,-10.5 c 2.12032,-37.74205 9.83935,-58.17655 30.40847,-80.5 3.54745,-3.85 8.15565,-9.50782 10.24046,-12.57293 2.0848,-3.06511 4.8404,-6.27842 6.12354,-7.14068 1.28315,-0.86227 2.07608,-1.83637 1.76208,-2.16466 -1.55325,-1.62393 -24.77995,12.81245 -32.42909,20.15606 -3.15869,3.03253 -13.80267,15.19721 -15.37391,17.57038 -0.78358,1.1835 -2.89548,3.72683 -4.69311,5.65183 -4.78716,5.12637 -13.30261,19.69484 -13.95869,23.88094 -1.58604,10.11959 -8.29628,14.15765 -15.26478,9.18596 -2.38937,-1.7047 -41.12251,-18.0669 -42.76857,-18.0669 -4.9276,0 -12.52843,-5.80358 -14.97606,-11.43489 -4.5437,-10.45382 -5.85399,-19.51818 -7.02028,-48.56511 -0.89318,-22.24519 -0.89262,-22.5876 0.049,-29.90722 0.6246,-4.85541 0.53711,-6.22977 -0.36124,-5.67456 -2.00787,1.24093 -9.39249,17.66313 -10.81188,24.04386 -3.03832,13.65852 -3.3113,17.46894 -2.66778,37.23869 l 0.65755,20.20077 -2.51649,1.14659 c -2.00561,0.91381 -3.1314,0.82861 -5.54533,-0.41968 -4.82654,-2.49591 -13.34014,-3.3744 -23.93901,-2.47022 -28.831399,2.4596 -36.309419,1.83608 -36.309419,-3.0275 0,-0.43525 -1.82181,-2.78022 -4.04847,-5.21104 -4.32588,-4.72253 -8.2151,-11.5303 -9.38043,-16.41969 -0.39326,-1.65 -2.62737,-6.825 -4.96469,-11.5 -2.33732,-4.675 -4.98314,-11.2 -5.8796,-14.5 -2.11978,-7.80323 -5.52954,-22.36825 -5.92044,-25.28961 -0.1685,-1.25929 -0.75637,-2.15929 -1.30637,-2 -1.62739,0.47131 -0.82975,26.847 1.037,34.29047 0.8887,3.54357 1.32362,6.91564 0.9665,7.49347 -0.35712,0.57784 0.01,3.178 0.81554,5.77814 0.80566,2.60014 2.24187,8.2185 3.19157,12.48525 1.02409,4.60092 2.92917,9.57307 4.68169,12.21888 4.5267,6.83408 3.76708,8.52723 -5.1923,11.5733 -9.2656,3.15017 -12.07811,4.63015 -23.4639,12.34701 -20.43601,13.85076 -19.80983,13.74413 -28.49982,4.85309 -3.62855,-3.7125 -9.84408,-9.675 -13.81228,-13.25 -3.96821,-3.575 -8.55139,-8.75 -10.18484,-11.5 -7.31685,-12.31824 -9.61499,-12.23698 -4.72224,0.16697 1.9163,4.85817 3.79913,9.95803 4.18406,11.33303 0.38493,1.375 2.15843,5.2 3.9411,8.5 1.78267,3.3 3.8053,7.71149 4.49472,9.80331 0.68942,2.09182 3.91068001,6.88299 7.15835,10.64704 7.35751,8.52736 7.17384,9.40354 -3.71169999,17.70634 -1.97713001,1.50804 -6.63107001,7.12994 -10.34209001,12.49312 -9.04509,13.07203 -12.47532,16.85019 -15.29844,16.85019 -4.04831,0 -23.863442,-14.98073 -38.159622,-28.84962 -5.33004,-5.17073 -9.08879,-8.1339 -9.34454,-7.36666 -0.23531,0.70594 0.0459,1.85441 0.62502,2.55215 0.57908,0.69774 2.4705,5.28508 4.20316,10.19407 1.73266,4.90899 4.56391,10.91304 6.29168,13.34232 1.72776,2.42929 4.49138,6.28522 6.14138,8.56874 2.90536,4.02089 14.941542,15.72951 20.944142,20.37417 3.31654,2.56624 3.48912,0.98722 -1.98756,18.18483 -2.36692,7.43249 -2.78535,10.75294 -3.33173,26.4389 l -0.62485,17.93891 -3.000002,0.6884 c -17.48225,4.01164 -18.90644,4.1976 -27.24113,3.55695 -4.6996,-0.36124 -9.71791,-0.91749 -11.1518,-1.23612 -8.83489,-1.96319 20.92804,14.14186 33.38685,18.066 l 6.99392,2.20286 1.218042,4.92205 c 2.04322,8.25654 5.91,18.70921 9.71972,26.27431 4.70392,9.34074 2.4622,13.13194 -12.471262,21.09139 -3.27489,1.7455 -5.95434,3.55394 -5.95434,4.01876 0,1.42697 20.497142,2.40854 24.096152,1.15392 4.00343,-1.39561 4.1214,-1.30096 12.84451,10.30432 3.75347,4.99364 9.6094,11.31287 13.01318001,14.04272 7.93581999,6.36459 7.26710999,12.64502 -2.49715001,23.45289 -4.94697,5.47571 -4.41483,6.37339 2.29331001,3.86866 5.89171999,-2.19989 17.24999999,-9.39664 17.24999999,-10.92981 0,-2.13902 4.21087,-0.49571 7.95994,3.1064 4.4316,4.25788 17.18199,11.4274 23.28,13.0903 6.25779,1.70647 6.36791,6.87197 0.33752,15.83308 -3.27809,4.87123 -3.33816,5.11487 -1.25984,5.10999 3.6558,-0.009 9.6835,-4.38532 13.18805,-9.57588 l 3.32119,-4.919 12.89073,0.34695 c 16.93542,0.45581 35.436539,-1.66291 46.782409,-5.35744 5.34191,-1.73947 26.23798,-11.94343 28.33571,-13.83688 0.91536,-0.82622 5.26429,-3.9263 9.66429,-6.88908 23.38375,-15.74566 29.40778,-19.9475 30.521,-21.28885 0.67314,-0.81109 1.89103,-1.4747 2.70642,-1.4747 0.81539,0 3.51865,-1.37416 6.00724,-3.05369 5.81677,-3.92569 10.60535,-3.8299 11.07383,0.22151 0.43536,3.7649 -9.16393,21.01879 -16.6642,29.95246 -1.70731,2.03361 -4.08212,5.35491 -5.27735,7.38066 -3.88731,6.58851 -20.02078,21.85592 -27.45823,25.98426 -3.79979,2.10917 -9.32592,5.36725 -12.2803,7.24018 -2.95437,1.87293 -8.35437,4.45998 -12,5.74899 -10.28667,3.63715 -23.70195,7.52563 -25.96343,7.52563 -1.12518,0 -5.16455,1.125 -8.97637,2.5 -3.811819,1.375 -7.969189,2.5 -9.238599,2.5 -1.26941,0 -3.68996,0.42046 -5.37901,0.93435 -12.04637,3.66511 -14.79986,3.90054 -35.571,3.04141 -21.08732,-0.87221 -30.67476,-2.28733 -39.66789,-5.85504 -2.84234,-1.12759 -10.41788,-3.41331 -16.83454,-5.07936 -6.41665,-1.66606 -12.81429,-3.93193 -14.21697,-5.03528 -1.40267,-1.10334 -3.04326,-2.00608 -3.64574,-2.00608 -1.68666,0 -12.6417,-6.91133 -17.30513,-10.91749 -8.536722,-7.33354 -15.133822,-12.10254 -18.925852,-13.68137 -2.14713,-0.89397 -5.80633,-3.37494 -8.13154,-5.51327 -2.32521,-2.13833 -4.62583,-3.88787 -5.11249,-3.88787 -3.05179,0 -14.7575,-12.65014 -23.52037,-25.41801 -2.67329,-3.8951 -6.106789,-8.43199 -7.630009,-10.08199 -1.52321,-1.65 -3.3392,-4.10572 -4.03553,-5.45716 -0.69632,-1.35143 -3.60199,-5.62643 -6.45703,-9.5 -7.31535,-9.92506 -16.80041,-28.53208 -18.14216,-35.58985 -0.36105,-1.89914 -1.126,-4.35299 -1.6999,-5.45299 -1.54118,-2.95403 -2.71377,-9.75309 -3.62175,-21 -0.44402,-5.5 -1.53761,-12.84885 -2.4302,-16.33077 -0.8926,-3.48192 -1.63603,-10.00692 -1.65207,-14.5 -0.016,-4.49308 -0.49137,-14.01923 -1.05628,-21.16923 -1.26129,-15.96387 -1.17702,-36.80384 0.184,-45.50209 1.92579,-12.30771 2.91977,-19.51244 3.44877,-24.99791 0.59561,-6.1762 2.25059,-12.50601 4.0526,-15.5 0.66207,-1.1 1.50655,-3.575 1.87662,-5.5 0.69099,-3.59426 4.37554,-13.71525 5.64279,-15.5 0.39052,-0.55 1.825,-3.925 3.18774,-7.5 5.42133,-14.22228 10.64184,-23.58893 25.155239,-45.13361 2.72926,-4.05152 5.69771,-8.94879 6.59654,-10.88283 0.89883,-1.93405 3.96454,-6.17942 6.81269,-9.43416 2.84815,-3.25474 6.82005,-8.42234 8.82643,-11.48356 2.00639,-3.06121 4.80764,-6.98119 6.225,-8.71106 1.41737,-1.72987 4.37703,-5.45328 6.57703,-8.27426 15.71663,-20.15281 24.415582,-29.28418 32.670172,-34.29417 4.58141,-2.78062 10.35483,-6.97225 12.82983,-9.31474 2.475,-2.34249 5.625,-4.59258 7,-5.00019 1.375,-0.40762 4.525,-1.78007 7,-3.04989 2.47500001,-1.26983 5.69483,-2.59722 7.15517,-2.94976 1.46034,-0.35254 3.67629,-1.72791 4.92431,-3.05638 1.24803,-1.32846 2.97821,-2.41575 3.84483,-2.41618 0.86663,-4.3e-4 4.27964,-1.27999 7.58446,-2.84345 3.30483,-1.56347 7.75812,-3.17085 9.8962,-3.57196 2.13809,-0.4011 4.83414,-1.32738 5.99123,-2.05838 1.15709,-0.731 3.6788,-1.63543 5.6038,-2.00983 3.42731,-0.66658 15.05593,-3.79922 28,-7.54291 8.39527,-2.42809 23.35722,-5.53857 33.499999,-6.9644 4.4,-0.61853 9.125,-1.34496 10.5,-1.61428 6.48295,-1.2698 27.39896,-3.59622 35.20093,-3.91529 4.78552,-0.1957 9.63232,-0.85428 10.77067,-1.46351 1.13835,-0.60923 2.48078,-0.85365 2.98318,-0.54315 0.5024,0.3105 7.5806,0.99293 15.72933,1.51651 8.14874,0.52358 17.06589,1.61788 19.81589,2.43177 5.30032,1.56869 21.97066,5.0196 29.5,6.10677 2.475,0.35737 8.12322,1.73497 12.5516,3.06133 4.42839,1.32636 9.30892,2.41157 10.84563,2.41157 1.53672,0 3.9885,0.83446 5.4484,1.85435 1.4599,1.01989 5.35437,2.67184 8.65437,3.67099 3.3,0.99915 7.23322,2.66729 8.7405,3.70698 1.50727,1.03969 4.43227,2.1579 6.5,2.48492 2.06772,0.32702 5.32223,1.64654 7.23224,2.93228 1.91,1.28574 5.735,3.0708 8.5,3.96681 2.76499,0.896 6.15226,2.66152 7.52726,3.92337 1.375,1.26185 5.02239,3.56913 8.10531,5.12729 6.09393,3.07996 10.92299,6.25189 20.67928,13.58301 3.47673,2.6125 6.9764,4.75 7.77706,4.75 3.56805,0 39.39129,35.09763 42.96752,42.0972 0.95621,1.87154 3.36582,5.25603 5.3547,7.52109 1.98887,2.26505 5.41613,6.73023 7.61613,9.92261 2.2,3.19238 5.65333,7.73955 7.67407,10.10481 2.02074,2.36526 3.97697,5.25482 4.34718,6.42124 0.75595,2.38178 6.12011,10.60167 7.2476,11.106 0.87743,0.39248 6.97217,10.3641 10.59044,17.32705 1.42902,2.75 3.9286,6.8 5.55462,9 1.62601,2.2 4.61265,7.375 6.63698,11.5 2.02433,4.125 4.78158,9.75 6.12722,12.5 1.34564,2.75 3.76856,6.66111 5.38426,8.69136 1.6157,2.03025 2.93763,4.35405 2.93763,5.16399 0,0.80995 2.21351,6.15407 4.91892,11.87583 2.70541,5.72176 5.63199,12.84796 6.50351,15.83601 0.87152,2.98805 2.93108,7.45781 4.5768,9.93281 1.64571,2.475 2.99413,4.92674 2.99649,5.44832 0.008,1.71286 9.1263,14.58613 11.33988,16.00924 2.03789,1.31015 5.74531,1.76095 25.1644,3.0598 49.4184,3.30537 58.27514,4.94509 90,16.6624 21.9212,8.09641 32.08187,12.88997 41.22129,19.4472 4.27739,3.06889 10.92743,7.42628 14.77789,9.6831 3.85045,2.25682 9.1501,6.00214 11.77699,8.32292 2.6269,2.32078 6.04991,4.49937 7.6067,4.84129 1.55679,0.34193 3.37086,1.6126 4.03127,2.82371 0.66041,1.21111 4.66239,4.79842 8.8933,7.97179 10.5924,7.94477 10.41689,7.77803 22.19731,21.08947 15.74127,17.78704 31.99525,43.44224 31.99525,50.50113 0,0.58373 2.7,6.46009 6,13.05856 3.3,6.59848 6.0058,12.57859 6.0129,13.28915 0.015,1.51789 3.6004,13.39396 4.9183,16.29192 1.6177,3.55702 4.0688,11.80515 4.0688,13.69171 0,1.00948 0.4112,2.61682 0.9138,3.57186 0.9043,1.71841 1.8317,6.15571 4.1248,19.73643 0.6501,3.85 2.4384,11.725 3.9741,17.5 1.5357,5.775 3.0623,13.42739 3.3925,17.00532 0.729,7.89899 3.3035,20.58189 4.7124,23.21435 1.7506,3.27104 3.6493,11.7836 5.3043,23.78033 0.8725,6.325 2.2701,16.45 3.1057,22.5 0.8356,6.05 1.9064,13.25 2.3796,16 1.2238,7.1118 3.0415,19.74616 4.1004,28.5 0.499,4.125 1.6199,10.875 2.491,15 1.6519,7.82283 4.9853,31.26431 6.565,46.16714 0.5052,4.76692 1.5976,11.27397 2.4275,14.4601 0.8299,3.18612 1.5159,7.38591 1.5245,9.33286 0.01,1.94694 0.7066,6.2399 1.5511,9.5399 0.8445,3.3 1.9307,8.925 2.4137,12.5 1.0198,7.54875 4.0539,24.66804 6.9623,39.28401 1.1181,5.6188 3.3884,17.03231 5.0451,25.36337 1.6567,8.33106 3.0122,17.00036 3.0122,19.2651 0,2.26474 0.6496,6.69842 1.4435,9.85262 0.7939,3.15419 1.9426,9.7849 2.5525,14.7349 1.1546,9.36925 2.5417,17.52372 3.9974,23.50002 0.4689,1.925 2.0054,11.15 3.4145,20.5 3.4927,23.1768 4.5781,29.4074 5.8348,33.4956 1.9173,6.2372 4.8964,23.3981 4.7747,27.5044 -0.065,2.2 0.3503,6.7 0.9234,10 2.3416,13.4843 5.0822,35.9557 6.1022,50.0356 0.5963,8.2304 1.7485,19.0143 2.5605,23.9643 0.97981,5.9725 1.78331,22.669 2.38851,49.6347 0.5016,22.3491 1.1845,41.7202 1.5174,43.0468 0.405,1.6137 -0.2372,3.8863 -1.9399,6.8653 -1.4,2.4493 -2.55081,5.8373 -2.55751,7.5289 -0.029,7.4952 -7.6202,8.2036 -91.012,8.4942 -2.475,0.01 -8.1,0.6269 -12.5,1.3739 -9.1796,1.5585 -8.22096,1.4935 -28,1.8997 -8.25,0.1695 -17.06867,-0.016 -19.59704,-0.4129 z m 49.09704,-9.4412 c 8.6676,-1.0438 24.5558,-1.9098 39.5,-2.153 13.75,-0.2238 30.7001,-0.5035 37.6669,-0.6217 13.8551,-0.2348 13.2792,-0.077 14.1919,-3.8869 0.6027,-2.5155 0.2072,-2.8777 -6.7464,-6.1783 -9.1034,-4.321 -28.6015,-23.2035 -28.6084,-27.7052 0,-1.4057 -1.129,-4.0806 -2.504,-5.9443 -1.375,-1.8637 -2.5,-4.3968 -2.5,-5.6292 0,-3.7764 -1.9133,-7.5615 -6.302,-12.4669 -7.0646,-7.8965 -12.4547,-14.2749 -15.5784,-18.4348 -1.6392,-2.183 -5.9755,-6.8941 -9.6361,-10.4691 -7.9158,-7.7306 -17.8473,-21.9974 -21.1119,-30.3275 -1.2893,-3.2899 -3.02531,-7.0212 -3.85786,-8.2919 -2.83407,-4.3253 -2.05728,-18.3673 1.39177,-25.1591 7.01689,-13.8175 18.37329,-17.8306 30.44229,-10.7577 7.5681,4.4352 13.841,15.6959 15.654,28.1013 3.5384,24.2106 4.425,29.8481 7.5391,47.9349 0.7576,4.4 2.5539,12.05 3.9918,17 1.4379,4.95 2.8007,10.6272 3.0284,12.6161 1.8823,16.4413 22.1121,40.2089 36.132,42.4508 l 4.0793,0.6523 0.7434,-8.3596 c 1.1133,-12.521 0.4904,-60.7468 -0.8895,-68.8596 -0.3274,-1.925 -0.799,-6.65 -1.0481,-10.5 -0.249,-3.85 -0.9217,-10.375 -1.4949,-14.5 -0.5731,-4.125 -1.501,-12.675 -2.0618,-19 -0.5609,-6.325 -1.5001,-16.9 -2.0871,-23.4999 -0.587,-6.6 -1.7124,-14.54 -2.5009,-17.6443 -0.7884,-3.1044 -1.4335,-7.4626 -1.4335,-9.6849 0,-2.2224 -0.4901,-5.3074 -1.0892,-6.8557 -0.5991,-1.5483 -1.7214,-7.7651 -2.494,-13.8151 -0.7726,-6.05 -2.0604,-13.475 -2.8617,-16.5 -0.8013,-3.025 -1.7485,-8.425 -2.105,-12 -0.691,-6.9307 -2.6768,-15.9628 -4.9468,-22.5 -0.7639,-2.2 -1.679,-7.15 -2.0335,-11 -0.3545,-3.85 -1.3202,-9.92502 -2.1461,-13.50002 -0.8258,-3.575 -1.6319,-8.34005 -1.7913,-10.58901 -0.1593,-2.24896 -0.7366,-4.94896 -1.2828,-6 -0.5462,-1.05104 -1.3028,-7.10773 -1.6812,-13.45929 -0.3784,-6.35157 -1.1395,-13.32657 -1.6914,-15.5 -2.2083,-8.69739 -4.0669,-17.47796 -5.9165,-27.9517 -1.0685,-6.05 -2.6635,-13.925 -3.5444,-17.5 -0.881,-3.575 -1.7338,-8.525 -1.8951,-11 -0.1612,-2.475 -0.7824,-6.975 -1.3803,-10 -3.3453,-16.92504 -5.561,-31.0015 -7.1021,-45.11872 -0.5775,-5.2903 -1.5096,-11.8153 -2.0713,-14.5 -0.5618,-2.68471 -1.7161,-9.83128 -2.565,-15.88128 -0.849,-6.05 -2.2044,-14.6 -3.012,-19 -1.6025,-8.73105 -4.67,-28.97291 -6.8951,-45.5 -0.7776,-5.775 -2.3854,-16.575 -3.573,-24 -1.1875,-7.425 -2.5039,-16.2 -2.9253,-19.5 -0.4213,-3.3 -1.7645,-9.6 -2.9849,-14 -1.2204,-4.4 -2.817,-11.15 -3.5481,-15 -0.731,-3.85 -1.7822,-8.8 -2.336,-11 -3.0565,-12.1419 -4.0746,-17.15427 -8.2258,-40.5 -2.2468,-12.63526 -5.3749,-24.94584 -8.04993,-31.68048 -1.56869,-3.94927 -2.85217,-7.87473 -2.85217,-8.72325 0,-0.84852 -0.87102,-3.46731 -1.93559,-5.81952 -1.06458,-2.35221 -2.92993,-6.97675 -4.14524,-10.27675 -1.2153,-3.3 -3.71928,-9.23475 -5.5644,-13.18833 -1.84513,-3.95359 -3.35477,-7.86453 -3.35477,-8.69099 0,-0.82645 -0.41538,-1.75936 -0.92306,-2.07313 -0.50769,-0.31377 -1.21746,-1.91085 -1.57728,-3.54908 -0.35981,-1.63823 -2.83709,-6.24557 -5.50505,-10.23854 -8.6492,-12.94466 -15.16694,-22.23643 -16.34378,-23.29986 -0.63296,-0.57196 -5.87583,-5.95687 -11.65083,-11.96646 -11.1884,-11.6429 -10.92758,-11.42283 -18.95433,-15.99361 -2.89757,-1.65 -7.54082,-4.8 -10.31835,-7 -2.77752,-2.2 -8.12151,-6.25 -11.87553,-9 -6.24393,-4.57398 -9.92448,-7.16094 -19.85179,-13.95326 -6.34975,-4.34453 -14.2754,-8.73262 -18.40291,-10.18889 -2.23539,-0.7887 -5.0124,-2.05518 -6.17112,-2.8144 -1.15873,-0.75923 -4.09109,-1.88692 -6.51637,-2.50599 -2.42528,-0.61907 -11.3846,-3.76186 -19.9096,-6.98399 -15.14248,-5.72327 -17.13816,-6.35933 -29.5,-9.4021 -6.52608,-1.60634 -19.45355,-2.49184 -46.27352,-3.16964 -9.50043,-0.24009 -18.05043,-0.85089 -19,-1.35733 -2.44293,-1.3029 -6.25505,-1.56299 -9.55022,-0.65158 -3.84278,1.06287 -7.27262,-0.69362 -8.08962,-4.14284 -0.36867,-1.55649 -1.52404,-4.62998 -2.56747,-6.82998 -2.71824,-5.73116 -9.06445,-20.09523 -15.0216,-34 -10.15059,-23.69283 -21.98358,-47.55471 -28.01806,-56.5 -2.04066,-3.025 -6.95838,-10.9 -10.92827,-17.5 -3.96989,-6.6 -9.20634,-14.7 -11.63656,-18 -2.43021,-3.3 -6.05262,-9.04546 -8.04979,-12.76769 -1.99717,-3.72223 -6.06848,-9.12223 -9.04734,-12 -2.97887,-2.87777 -6.25646,-6.82839 -7.28353,-8.77916 -7.80245,-14.81964 -40.28174,-44.52134 -59.01842,-53.97124 -2.46642,-1.24395 -7.75248,-4.42594 -11.7468,-7.07108 -10.72367,-7.10152 -18.63653,-11.26135 -29.2688,-15.38675 -5.225,-2.02734 -13.325,-5.41609 -18,-7.53055 -7.80614,-3.53066 -14.24968,-5.44487 -31.99963,-9.50632 -3.57479,-0.81797 -7.88022,-1.48721 -9.56763,-1.48721 -1.6874,0 -6.41256,-0.90484 -10.50037,-2.01076 -28.22343,-7.63558 -67.75728,-8.19629 -92.43237,-1.31096 -3.3,0.92083 -7.575,1.75763 -9.5,1.85955 -23.004879,1.21805 -79.581539,17.57769 -97.120959,28.08338 -3.09153,1.85176 -6.91653,3.93662 -8.5,4.63304 -1.58346999,0.69642 -4.67904,2.50602 -6.87904,4.02134 -2.2,1.51533 -7.825,5.30366 -12.5,8.41851 -4.675,3.11486 -10.98507,7.32944 -14.02238,9.36573 -7.52134,5.0425 -20.137302,19.69834 -32.659452,37.94017 -2.07652,3.025 -5.83454,7.80242 -8.35116,10.61649 -4.61612,5.16173 -22.46471,30.88024 -23.68618,34.13006 -0.36247,0.9644 -2.84968,4.77668 -5.527109,8.47175 -2.67744,3.69506 -5.92662,9.32006 -7.22041,12.5 -1.29379,3.17993 -4.36027,9.8317 -6.81441,14.7817 -7.18998,14.5022 -11.34785,28.07142 -14.2485,46.5 -0.73584,4.675 -2.03335,12.37064 -2.88336,17.10143 -2.52643,14.0611 -2.91271,21.93333 -1.74311,35.52399 0.60939,7.08102 1.35292,19.26315 1.65229,27.07141 0.29938,7.80825 1.00125,16.35825 1.55973,19 0.55847,2.64174 1.41506,8.17817 1.90354,12.30317 1.40372,11.85395 2.93096,21.16586 4.18223,25.5 1.96946,6.82181 8.02792,21.92037 9.44795,23.54566 0.74275,0.85012 2.6679,4.45121 4.2781,8.00244 1.6102,3.55123 3.92319,7.35568 5.13998,8.45434 1.21679,1.09866 4.1197,4.92256 6.450919,8.49756 2.33122,3.575 7.29957,9.875 11.04078,14 3.74121,4.125 8.00438,9.37454 9.47372,11.66565 4.8264,7.5257 8.71295,11.11529 19.18761,17.72155 5.68657,3.58646 15.28922,10.86339 21.339222,16.17094 13.38677,11.74398 23.25404,16.38973 53.5,25.18913 23.19915,6.74928 58.07708,7.81624 76.5,2.34025 3.85,-1.14437 9.924999,-2.96155 13.499999,-4.03818 3.575,-1.07663 9.2,-2.67955 12.5,-3.56205 3.3,-0.88249 6.78139,-2.02815 7.73643,-2.54591 0.95504,-0.51776 2.59591,-0.94138 3.64639,-0.94138 2.77391,0 16.18998,-5.6347 19.11718,-8.02914 1.375,-1.12475 3.79428,-2.81582 5.37618,-3.75793 14.96484,-8.91241 19.40711,-12.89412 27.57142,-24.71293 2.65954,-3.85 6.27926,-8.35 8.04382,-10 3.82476,-3.57645 9.41889,-11.42302 8.67458,-12.16734 -0.58197,-0.58196 -26.65929,16.16597 -37.97777,24.39089 -3.95353,2.87295 -9.21323,6.24795 -11.68823,7.5 -2.475,1.25205 -5.68122,3.05452 -7.12494,4.00549 -8.40714,5.53777 -22.71667,9.14616 -42.875059,10.81166 -17.94514,1.48264 -20.18124,1.54836 -23.27441,0.68412 -2.23102,-0.62335 -3.21032,-0.31003 -5,1.59971 -6.22907,6.64694 -28.12836,13.67102 -33.55989,10.76415 -2.94361,-1.57537 -2.75365,-2.71769 1.47233,-8.85362 6.4276,-9.33259 5.75941,-11.42288 -5.68579,-17.78667 -13.03006,-7.24501 -13.68299,-7.35072 -18.83177,-3.04904 -2.3708,1.98075 -5.84731,3.80247 -7.92254,4.15149 -2.03386,0.34206 -6.28721999,1.48306 -9.45191,2.53555 -16.66951,5.54381 -36.26166,-0.19159 -20.25923,-5.93069 8.10065,-2.90521 15.92872,-9.69554 19.12134,-16.5865 l 2.30326,-4.97135 -3.68347,-4.54892 c -6.58851,-8.13651 -16.45082,-19.51664 -18.10878,-20.89573 -1.22031,-1.01505 -3.81683,-1.19947 -10.54121,-0.74869 -12.877302,0.86325 -25.477152,-0.98193 -34.416742,-5.04014 -10.02834,-4.55247 -8.15955,-7.11039 5.33881,-7.30753 6.74703,-0.0985 22.711292,-8.8461 25.436232,-13.93769 0.90953,-1.69947 0.49081,-2.85268 -8.693142,-23.94207 -3.90104,-8.95808 -4.78546,-9.75115 -14.66474,-13.15012 -2.80279,-0.9643 -8.04307,-3.5571 -11.64507,-5.76176 -3.602,-2.20467 -7.56869,-4.3321 -8.81487,-4.72762 -5.84159,-1.85405 -26.118409,-25.51906 -26.118409,-30.48271 0,-3.54008 4.57611,-2.5203 11.160359,2.48706 14.19025,10.79178 24.26831,12.79668 44.56078,8.86482 2.84329,-0.55091 4.20796,-3.14352 4.22579,-8.0282 0.0701,-19.19082 0.30002,-22.56069 1.97062,-28.87855 3.86433,-14.61413 4.03614,-13.57837 -3.62156,-21.83235 -14.53591,-15.66776 -22.75866,-27.38025 -26.09353,-37.16765 -1.12442,-3.3 -3.42996,-9.44996 -5.12343,-13.66659 -3.48569,-8.67914 -4.0766,-17.00364 -1.55335,-21.88307 2.00935,-3.88565 2.75741,-3.74145 6.74194,1.29966 8.14066,10.29934 23.18142,25.82306 28.91957,29.8482 1.82205,1.2781 5.81621,4.38944 8.875932,6.91408 11.61544,9.58417 11.25811,9.69476 25.28129,-7.82399 12.22174,-15.26824 11.88748,-14.14039 6.70162,-22.61309 -5.69964,-9.31211 -8.17066,-14.45861 -13.96004,-29.0752 -2.832,-7.15 -6.59635,-16.375 -8.36524,-20.5 -5.28106,-12.31534 -4.15001,-37 1.69535,-37 3.11871,0 3.69344,0.91406 7.54519,12 8.29774,23.88223 37.43453,60.14874 43.94183,54.69433 2.061,-1.72753 15.5598,-9.92985 20.09688,-12.21153 1.925,-0.96808 4.97816,-3.04774 6.7848,-4.62147 1.80663,-1.57373 3.87439,-2.86133 4.59501,-2.86133 3.85378,0 4.64125,-3.36115 2.08175,-8.88556 -1.35386,-2.92217 -2.46156,-6.22864 -2.46156,-7.34772 0,-1.11907 -0.41273,-3.66189 -0.91718,-5.6507 -9.7519,-38.44721 -3.89044,-88.11602 10.39863,-88.11602 3.48932,0 3.75799,1.11058 2.40569,9.94435 -2.57278,16.80647 4.1615,46.5964 16.06277,71.05565 5.36232,11.02053 6.39268,12.59288 11.4645,17.49499 l 4.91441,4.74998 9.085589,0.10043 c 4.99707,0.0552 11.43393,-0.49137 14.30412,-1.21468 4.2559,-1.07251 6.91128,-1.08378 14.39507,-0.0611 12.23461,1.67194 12.09577,1.8601 11.85749,-16.06965 -0.3085,-23.21425 1.95379,-34.62549 10.40819,-52.5 10.9513,-23.15353 13.89974,-27.97755 23.4674,-38.39548 8.484,-9.23798 10.37995,-6.87506 5.62833,7.01458 -7.67479,22.43451 -10.4203,40.7121 -9.22016,61.3809 0.41517,7.15 0.96256,17.22588 1.21641,22.39084 1.07091,21.78847 3.6681,25.29505 25.62254,34.59414 9.75832,4.13326 18.44574,7.51502 19.30537,7.51502 0.85963,0 4.52397,1.46014 8.14298,3.24475 l 6.58001,3.24475 1.75821,-2.3309 c 0.96701,-1.282 3.71941,-6.07562 6.11644,-10.6525 2.41506,-4.61131 7.4479,-11.81818 11.28786,-16.16385 3.81129,-4.31324 8.17924,-9.64225 9.70655,-11.84225 13.27447,-19.12111 48.44603,-39.5 68.17233,-39.5 11.69064,0 13.07712,2.33337 4.08645,6.87728 -3.38135,1.70894 -8.01567,5.33643 -11.25,8.80587 -17.94426,19.24868 -35.0485,40.26487 -38.65508,47.49597 -5.94495,11.9195 -8.32713,17.8509 -9.3662,23.32088 -0.62686,3.3 -1.58418,8.00856 -2.12738,10.46347 -0.5432,2.45491 -1.24521,9.01173 -1.56001,14.57072 -0.63134,11.14872 -1.11374,9.67685 7.36304,22.46581 2.36958,3.575 5.39207,9.51118 6.71665,13.19151 1.32459,3.68033 3.83179,8.80067 5.57157,11.37854 5.0108,7.42459 7.29848,14.27459 10.66743,31.94156 1.05065,5.50967 -1.90451,6.91887 -11.81123,5.63233 -20.21682,-2.62548 -34.31811,-3.43269 -40.83119,-2.33731 -3.55718,0.59825 -10.2926,1.36056 -14.9676,1.69403 -11.82794,0.84368 -28.39705,3.37533 -33.21411,5.07488 -2.22054,0.78345 -5.34522,1.42446 -6.94374,1.42446 -1.59851,0 -4.57943,0.70216 -6.62427,1.56036 -2.04483,0.8582 -7.45852,2.21541 -12.03042,3.01602 -7.6668,1.34259 -18.4476,4.98083 -32.18746,10.86243 -3.025,1.29491 -6.625,2.68491 -8,3.0889 -1.375,0.40399 -5.65,2.31316 -9.5,4.24262 -3.85,1.92945 -9.42355,4.34222 -12.38567,5.3617 -2.96212,1.01948 -7.68712,3.37273 -10.5,5.22943 -2.81288,1.85671 -7.10158,4.38222 -9.53044,5.61225 -6.950849,3.52008 -24.085289,15.2147 -24.070749,16.4288 0.0208,1.73717 10.90007,6.49806 17.48686,7.65246 3.3,0.57835 10.274999,2.47108 15.499999,4.20606 5.225,1.73498 11.75,3.46117 14.5,3.83598 2.75,0.3748 9.725,1.66395 15.5,2.86476 13.54701,2.81688 54.32473,3.69878 68,1.47064 16.16051,-2.63307 33.38979,-6.98059 38.83516,-9.79941 6.22742,-3.22366 26.86808,-12.55335 29.16484,-13.18267 4.56367,-1.25046 12.54856,-5.20145 13.9676,-6.91129 0.76923,-0.92687 3.00371,-2.51519 4.9655,-3.52961 1.9618,-1.01441 5.57309,-3.90652 8.02511,-6.42691 4.6233,-4.75222 8.65298,-5.96085 10.88943,-3.2661 1.91867,2.31185 -0.48299,7.89928 -4.62155,10.75193 -2.66655,1.83803 -5.03941,5.10814 -8.34464,11.5 -2.5402,4.91241 -9.32845,17.93165 -15.08501,28.93165 -5.75655,11 -13.9605,26.75 -18.23098,35 -4.27049,8.25 -10.60216,20.4 -14.07038,27 -17.49789,33.29838 -351.698751,687.04415 -353.91447,692.30845 -2.88656,6.8581 -3.1568,8.772 -1.33061,9.4234 4.703809,1.6781 126.460051,0.8155 128.414791,-0.9097 1.13553,-1.0022 80.259889,-155.4972 175.831919,-343.32212 95.57202,-187.825 174.8393,-343.1875 176.14949,-345.25 3.79916,-5.9806 9.10846,-4.49046 9.9066,2.78046 0.12373,1.12716 2.07497,6.39597 4.33608,11.70847 2.26112,5.3125 4.11112,9.91598 4.11112,10.22995 0,0.31398 1.15362,2.39831 2.5636,4.63186 1.40998,2.23356 4.10169,8.0915 5.98158,13.01766 1.8799,4.92616 4.74402,11.52726 6.36472,14.66912 1.6207,3.14187 4.6067,9.53748 6.63555,14.21248 2.02886,4.675 5.40931,12.1 7.51211,16.5 2.1028,4.4 4.74256,10.66298 5.86613,13.91774 1.12357,3.25476 2.89132,6.85476 3.92834,8 1.03702,1.14524 2.19061,3.3695 2.56353,4.9428 0.37292,1.57329 3.58197,8.72146 7.13124,15.88482 3.54926,7.16335 6.45617,13.75111 6.45979,14.63946 0.004,0.88835 0.90066,2.96518 1.99341,4.61518 1.09275,1.65 1.98979,3.72644 1.99341,4.61431 0.004,0.88787 2.03159,5.6896 4.50659,10.67051 2.475,4.98091 4.5,9.29248 4.5,9.58126 0,0.55734 14.08884,31.6932 21.55414,47.63392 2.44695,5.225 4.4483,9.8107 4.44743,10.19044 -0.002,0.74331 9.40795,20.32618 10.96008,22.80956 1.33205,2.13125 8.03835,17.59442 8.03835,18.53456 0,0.43056 1.54002,3.97392 3.42226,7.87414 6.58908,13.65329 11.57774,24.71598 11.57774,25.67442 0,0.53175 1.51284,3.99307 3.36188,7.69184 1.84903,3.69877 3.88887,8.35175 4.53297,10.33996 0.6441,1.98821 3.34158,8.06321 5.9944,13.5 2.65281,5.43679 5.40014,11.68508 6.10516,13.88508 0.70503,2.2 4.14471,10.15122 7.64373,17.66937 3.49902,7.51816 6.36186,13.92195 6.36186,14.23065 0,0.50855 2.05698,5.03552 10.49628,23.1 1.54169,3.3 4.25367,9.375 6.02663,13.5 1.77297,4.125 6.69646,15.15 10.94109,24.5 10.53827,23.2135 23.55491,52.1342 28.35502,63 2.18674,4.95 6.31099,14.175 9.165,20.5 2.85402,6.3249 6.53819,14.6499 8.18704,18.4999 1.64886,3.85 4.50074,10.15 6.33752,14 8.18715,17.1607 12.70436,27.0184 17.01659,37.1343 5.11246,11.993 13.08103,28.3337 14.53976,29.8157 0.51429,0.5225 0.93507,1.6678 0.93507,2.5452 0,1.7088 7.35574,18.7868 14.431,33.5048 2.37958,4.95 4.81104,10.2147 5.40324,11.6994 2.05445,5.1504 6.1999,10.8006 7.9283,10.8061 0.95561,0 4.7791,1.2406 8.49666,2.75 8.2745,3.3598 24.86069,3.6095 48.7408,0.7339 z m -73.5,-465.4382 c -2.2,-1.05662 -8.275,-3.82435 -13.5,-6.1505 -30.62829,-13.63558 -73.63231,-44.61997 -80.5821,-58.05938 -0.77982,-1.50801 -2.02096,-3.1017 -2.75808,-3.54154 -9.35984,-5.58496 -19.0089,-59.84348 -12.50174,-70.2997 0.8557,-1.375 2.33925,-5.09443 3.29678,-8.26541 1.80082,-5.96359 2.06379,-6.25725 15.04514,-16.80122 4.58104,-3.7209 29.75232,-16.93337 32.26002,-16.93337 1.78528,0 8.80996,11.38673 10.24769,16.61109 0.73998,2.6889 2.56933,7.81391 4.06523,11.38891 1.4959,3.575 3.68661,9.97557 4.86825,14.2235 1.18164,4.24792 3.77628,11.22292 5.76587,15.5 3.94321,8.47685 9.67363,24.35524 14.17466,39.2765 1.57613,5.225 4.91824,15.35 7.42691,22.5 2.50868,7.15 5.69117,16.825 7.07221,21.5 1.38105,4.675 4.56033,15.12268 7.06508,23.21706 6.03304,19.49651 6.01335,19.65677 -1.94592,15.83406 z m -6.5,-15.90096 c 0,-1.01741 -1.56246,-6.52991 -3.47212,-12.25 -1.90967,-5.72009 -3.84194,-12.20016 -4.29393,-14.40016 -0.8011,-3.8993 -0.94657,-4.01542 -5.77787,-4.61232 -15.44215,-1.90788 -25.09796,-9.80693 -34.70114,-28.38768 -13.48305,-26.08776 -13.64752,-38.07225 -0.72206,-52.6157 6.53197,-7.34965 7.05219,-9.30682 4.35491,-16.3843 -0.83844,-2.2 -1.95297,-5.71872 -2.47674,-7.81937 -1.72391,-6.91403 -6.70712,-15.59134 -9.33217,-16.25019 -4.93263,-1.23801 -30.23534,14.03558 -34.90452,21.06956 -6.05263,9.11813 -8.05561,31.38822 -4.36209,48.5 4.01375,18.59538 17.48671,38.73989 34.16247,51.07902 6.03582,4.46618 7.0862,5.11973 23.7663,14.78742 5.09243,2.95155 12.60971,7.45155 16.70508,10 11.73039,7.29957 21.05388,10.52508 21.05388,7.28372 z m -17.02388,-52.62138 c 1.44848,-1.74532 -12.26901,-42.04346 -14.61851,-42.94505 -3.95641,-1.51821 -7.35761,3.76837 -7.35761,11.43613 0,13.22714 16.96338,37.5489 21.97612,31.50892 z M 796.1646,1188.6557 c -0.6536,-3.3124 -1.5747,-7.3725 -2.0468,-9.0225 -0.4721,-1.65 -1.5777,-9.975 -2.457,-18.5 -2.8583,-27.7122 -10.6481,-41.5074 -22.3836,-39.6403 -8.9981,1.4316 -13.6747,23.8948 -7.4718,35.8899 4.0106,7.7556 13.1499,20.4991 18.8647,26.304 1.6534,1.6795 5.9312,6.1795 9.5062,10 l 6.5,6.9464 0.3384,-2.9775 c 0.1861,-1.6376 -0.1965,-5.6876 -0.8501,-9 z"
       id="path3159"
       inkscape:connector-curvature="0" />
  </g>
</svg>
