<?xml version="1.0" encoding="UTF-8" standalone="no"?>
<!-- Created with Inkscape (http://www.inkscape.org/) -->

<svg
   xmlns:dc="http://purl.org/dc/elements/1.1/"
   xmlns:cc="http://creativecommons.org/ns#"
   xmlns:rdf="http://www.w3.org/1999/02/22-rdf-syntax-ns#"
   xmlns:svg="http://www.w3.org/2000/svg"
   xmlns="http://www.w3.org/2000/svg"
   xmlns:sodipodi="http://sodipodi.sourceforge.net/DTD/sodipodi-0.dtd"
   xmlns:inkscape="http://www.inkscape.org/namespaces/inkscape"
   width="1001.752"
   height="1176.8979"
   id="svg4303"
   version="1.1"
   inkscape:version="0.48.3.1 r9886"
   sodipodi:docname="New document 14">
  <defs
     id="defs4305" />
  <sodipodi:namedview
     id="base"
     pagecolor="#ffffff"
     bordercolor="#666666"
     borderopacity="1.0"
     inkscape:pageopacity="0.0"
     inkscape:pageshadow="2"
     inkscape:zoom="0.35"
     inkscape:cx="535.876"
     inkscape:cy="891.30609"
     inkscape:document-units="px"
     inkscape:current-layer="layer1"
     showgrid="false"
     fit-margin-top="0"
     fit-margin-left="0"
     fit-margin-right="0"
     fit-margin-bottom="0"
     inkscape:window-width="962"
     inkscape:window-height="804"
     inkscape:window-x="800"
     inkscape:window-y="155"
     inkscape:window-maximized="0" />
  <metadata
     id="metadata4308">
    <rdf:RDF>
      <cc:Work
         rdf:about="">
        <dc:format>image/svg+xml</dc:format>
        <dc:type
           rdf:resource="http://purl.org/dc/dcmitype/StillImage" />
        <dc:title></dc:title>
      </cc:Work>
    </rdf:RDF>
  </metadata>
  <g
     inkscape:label="Layer 1"
     inkscape:groupmode="layer"
     id="layer1"
     transform="translate(160.876,-246.77034)">
    <path
       style="fill:#000000"
       d="m 693.453,1423.2596 c -13.05548,-1.9547 -23.32393,-6.7809 -29.83481,-14.0226 -6.44999,-7.1739 -13.4462,-21.7073 -39.4607,-81.9725 -26.30166,-60.9304 -149.558,-342.87255 -177.70914,-406.49995 -29.08139,-65.72997 -50.22775,-113.77001 -59.52223,-135.22192 -16.10939,-37.18092 -21.79607,-40.39524 -35.35607,-19.9846 -2.99864,4.51359 -16.56627,29.80652 -30.15029,56.20652 -13.58402,26.4 -42.24961,81.975 -63.70131,123.5 -21.4517,41.525 -53.41006,103.40005 -71.01856,137.50005 -17.60851,34.1 -42.15274,81.575 -54.54273,105.5 -12.38999,23.925 -41.413779,81.0749 -64.497319,126.9999 -23.08353,45.925 -42.88224,84.85 -43.99712,86.5 -6.56278,9.7128 -14.8301199,14.5831 -28.0103399,16.5011 -12.0074901,1.7473 -100.9128811,-0.1941 -108.6040011,-2.3715 -6.3435,-1.796 -11.86603,-5.896 -14.41314,-10.7007 -2.31294,-4.363 -1.79628,-17.2249 0.96233,-23.9566 1.83995,-4.4898 7.24492,-14.9009 57.871275,-111.4723 14.416546,-27.4999 34.216836,-65.5249 44.000646,-84.4999 9.78381,-18.975 37.81311,-72.75 62.28734,-119.5 24.47422,-46.75 52.45314,-100.52505 62.17538,-119.50005 29.401509,-57.38328 55.861189,-108.61224 86.255239,-167 39.22883,-75.3596 66.63009,-130.53149 67.38533,-135.679 0.52861,-3.60293 0.25872,-4.53341 -1.95787,-6.75 -3.41649,-3.41649 -6.03941,-3.28919 -20.10874,0.97594 -28.35066,8.59451 -45.11387,10.96499 -71.95084,10.17455 -25.18025,-0.74166 -43.70873,-3.04036 -62.438339,-7.7463 -25.36913,-6.37417 -36.03256,-13.24747 -37.68895,-24.29306 -1.43586,-9.57502 3.54448,-18.00878 15.56822,-26.3634 8.47724,-5.89035 40.150729,-21.21706 57.696689,-27.91926 29.98107,-11.45216 61.02654,-18.00349 110.49987,-23.3181 19.8629,-2.13374 23.25537,-3.39045 26.26317,-9.72892 2.50425,-5.2773 1.54723,-8.87549 -6.87754,-25.85802 -4.09421,-8.25307 -8.22936,-17.92807 -9.18922,-21.5 -1.54471,-5.74834 -2.39048,-20.60306 -2.43045,-42.68728 l -0.006,-3.19285 -9.07315,4.69285 -9.07316,4.69285 -11.67684,-0.0362 c -10.52075,-0.0326 -12.60796,-0.35759 -21.08126,-3.28267 -5.17242,-1.78558 -13.49742,-5.32527 -18.5,-7.86598 -7.87951,-4.00185 -10.52849,-6.09077 -19.8129,-15.624 l -10.71731,-11.00453 -10.94606,4.67321 c -20.61551,8.8014 -45.876039,9.07792 -64.967359,0.71118 -11.94582,-5.23524 -10.59243,-5.60014 -23.07231,6.22075 -13.62578,12.90626 -22.0087,17.61018 -38.77069,21.75545 -6.3196799,1.56286 -12.61210993,3.57659 -13.98316993,4.47494 -2.94296997,1.92831 -4.61991997,5.62251 -6.77964997,14.93511 -4.2171101,18.1838 -16.5817701,31.62991 -34.4321501,37.44368 -3.5123,1.14393 -6.9998,2.58929 -7.75,3.2119 -1.87928,1.55967 -1.69791,5.24272 0.63466,12.88712 2.72585,8.93333 3.44566,19.72321 2.06804,31 -2.09818,17.17504 -3.91865,23.75848 -9.64214,34.86929 -2.9835,5.79177 -5.424546,11.48397 -5.424546,12.64933 0,1.16536 1.802616,5.01291 4.005826,8.55011 7.75036,12.44303 11.17798,20.31068 15.55853,35.71263 2.43243,8.55239 5.03869,16.48779 5.79168,17.63422 0.75299,1.14643 4.64096,5.68442 8.63992,10.08442 3.99897,4.4 10.60114,12.34459 14.67149,17.65465 8.5250901,11.12159 14.8195401,16.35821 25.52905,21.23869 4.18351,1.90648 11.12029,5.59942 15.41507,8.20653 13.0584,7.92698 18.45139,9.35539 35.38843,9.37314 30.44131,0.0319 48.192309,-4.8297 75.219109,-20.60087 13.77778,-8.03986 23.99251,-12.31501 29.51065,-12.35105 4.8264,-0.0315 10.83695,2.73252 12.13444,5.58021 4.90622,10.76797 -9.26777,33.01037 -29.82518,46.8029 -17.76281,11.91755 -51.204039,23.85512 -81.420009,29.06464 -11.5767,1.99593 -38.8308,2.01008 -52.11901,0.0271 -17.35061993,-2.58926 -41.0523,-10.22818 -57.81004,-18.63186 -11.10528,-5.56908 -45.233236,-30.46056 -56.556906,-41.25019 -21.890715,-20.85836 -45.011385,-57.92526 -52.729215,-84.53515 -6.94753,-23.95397 -12.2226,-88.09879 -9.50485,-115.5787 5.53723,-55.98841 22.86868,-95.74456 67.618345,-155.10795 27.13355,-35.99445 41.550076,-49.99188 66.168716,-64.24512 25.80133007,-14.93784 68.55586,-29.42639 106.31417,-36.02739 29.218719,-5.10809 45.548269,-6.61857 71.499999,-6.61374 27.10806,0.005 29.09784,0.24009 59.70736,7.05256 45.74725,10.18153 86.3654,28.68888 121.06238,55.16115 13.8673,10.58014 33.45075,30.36474 43.8303,44.28049 28.98579,38.86098 48.37956,71.38778 69.41384,116.41937 13.66793,29.2612 18.36931,37.00331 25.9995,42.81529 7.53597,5.74021 14.96137,7.61213 34.85887,8.78782 30.94083,1.82822 44.2106,4.41246 67.62775,13.17026 27.53738,10.29873 44.78256,18.94521 66.85345,33.51937 24.84088,16.40328 51.41678,40.75068 64.89271,59.4512 11.6246,16.13143 23.83206,40.67618 33.15847,66.66961 5.17237,14.41593 10.61967,37.27774 21.11867,88.63353 3.3694,16.48154 6.3127,30.26812 6.5405,30.63683 0.2279,0.36872 5.1262,33.45881 10.8851,73.53356 5.7589,40.07474 14.5284,96.71316 19.4877,125.86321 4.9594,29.15 12.8523,77.075 17.5399,106.5 4.6876,29.425 10.3002,63.85 12.4725,76.5 4.8913,28.484 8.2181,57.3027 11.511,99.715 3.9376,50.7163 3.1913,79.9568 -2.5084,98.2849 -6.8093,21.8959 -15.9185,27.8366 -44.4516,28.9896 -22.1832,0.8965 -92.95042,1.2615 -98,0.5055 z m 82.8024,-98.5686 c 0.9046,-4.1237 0.5705,-11.672 -1.3248,-29.9265 -2.5132,-24.2052 -5.8984,-34.3461 -13.9929,-41.9176 -7.9236,-7.4115 -16.8913,-7.2758 -22.9287,0.3469 -10.74805,13.5705 -6.93666,31.8971 11.3793,54.716 9.6376,12.007 21.5377,21.9815 25.0352,20.9844 0.5338,-0.1522 1.3581,-2.0436 1.8319,-4.2032 z M 631.953,905.48706 c 0,-1.15548 -2.74604,-4.90151 -9.32627,-12.72251 -6.6897,-7.95111 -18.10521,-30.20494 -21.7471,-42.39461 -1.87328,-6.26998 -2.11251,-8.77942 -1.57303,-16.5 0.34994,-5.00796 1.53082,-12.48039 2.62419,-16.60539 3.51093,-13.24588 2.35249,-21.01996 -3.91854,-26.29669 -5.20066,-4.37607 -11.99111,-3.21408 -19.44066,3.32671 -9.26221,8.13233 -12.96458,17.78593 -12.83649,33.46998 0.19229,23.54511 11.79446,46.10081 31.05954,60.3826 13.46027,9.97852 35.15836,20.67989 35.15836,17.33991 z"
       id="path4271"
       inkscape:connector-curvature="0" />
  </g>
</svg>
